<svg width="87" height="51" viewBox="0 0 87 51" fill="none" xmlns="http://www.w3.org/2000/svg">
<g id="10">
<path d="M1.40625 15.9688C1.65625 15.8438 1.90625 15.7812 2.15625 15.7812C3.21875 15.7812 3.75 16.3125 3.75 17.375C3.75 18.4375 3.21875 18.9688 2.15625 18.9688C1.09375 18.9688 0.5625 18.4375 0.5625 17.375V13.8125H0.46875V7.8125C2.34375 7.8125 3.90625 7.03125 5.15625 5.46875C6.28125 4.09375 7 2.4375 7.3125 0.5H21.6562V38.75C21.6562 40 22.7188 40.625 24.8438 40.625C25.4688 40.625 26 40.5625 26.4375 40.4375V47H0V40.1562C0.5 40.4062 1.0625 40.5312 1.6875 40.5312C2.4375 40.5312 3.1875 40.3125 3.9375 39.875C4.9375 39.375 5.375 38.7812 5.25 38.0938V15.3125C5.25 14.3125 4.84375 13.8125 4.03125 13.8125C2.28125 13.8125 1.40625 14.5313 1.40625 15.9688Z" fill="#14b8a6"/>
<path d="M86.2575 23.1875C86.2575 28.6875 84.2575 33.875 80.2575 38.75C78.5075 40.875 75.1012 43.1562 70.0387 45.5938C65.2262 47.9688 62.4762 49.7188 61.7887 50.8438C60.8512 49.4688 58.2575 47.9688 54.0075 46.3438C49.2575 44.4688 46.1637 42.9062 44.7262 41.6562C39.7887 37.5938 37.32 32.2812 37.32 25.7188C37.32 17.9688 39.6012 11.875 44.1637 7.4375C48.7887 2.9375 54.9762 0.6875 62.7262 0.6875C69.0387 0.6875 74.5387 2.875 79.2262 7.25C83.9137 11.625 86.2575 16.9375 86.2575 23.1875ZM74.3512 17.5625C74.3512 14.0625 73.1637 11.2187 70.7887 9.03125C68.4762 6.78125 65.5387 5.65625 61.9762 5.65625C58.6012 5.65625 55.7262 6.8125 53.3512 9.125C50.9762 11.375 49.7887 14.1875 49.7887 17.5625C49.7887 20.875 50.9762 23.6562 53.3512 25.9062C55.7262 28.0938 58.6012 29.1875 61.9762 29.1875C65.1637 29.1875 68.0075 28.0625 70.5075 25.8125C73.07 23.5625 74.3512 20.8125 74.3512 17.5625Z" fill="#F9F9F9"/>
</g>
</svg>
